HIERARCHY
ROOT Hips
{
  OFFSET 55.1244 86.0049 49.8995
  CHANNELS 6 Xposition Yposition Zposition Zrotation Xrotation Yrotation
  JOINT spine
  {
    OFFSET 0 6.3926 0.367606
    CHANNELS 3 Zrotation Xrotation Yrotation
    JOINT spine1
    {
      OFFSET 0 9.17611 0
      CHANNELS 3 Zrotation Xrotation Yrotation
      JOINT spine2
      {
        OFFSET 0 8.79238 0
        CHANNELS 3 Zrotation Xrotation Yrotation
        JOINT Neck
        {
          OFFSET 0 22.5737 1.07624
          CHANNELS 3 Zrotation Xrotation Yrotation
          JOINT Head
          {
            OFFSET 0 6.82011 0
            CHANNELS 3 Zrotation Xrotation Yrotation
            End Site
            {
              OFFSET 0 16.5085 -5.44427
            }
          }
        }
        JOINT RightShoulder
        {
          OFFSET -3.70221 9.49509 -0.515508
          CHANNELS 3 Zrotation Xrotation Yrotation
          JOINT RightArm
          {
            OFFSET 0 12.4537 0
            CHANNELS 3 Zrotation Xrotation Yrotation
            JOINT RightArmRoll
            {
              OFFSET 0 6.28686 0
              CHANNELS 3 Zrotation Xrotation Yrotation
              JOINT RightForeArm
              {
                OFFSET 0 18.3114 0
                CHANNELS 3 Zrotation Xrotation Yrotation
                JOINT RightForeArmRoll
                {
                  OFFSET 0 7.05483 0
                  CHANNELS 3 Zrotation Xrotation Yrotation
                  JOINT RightHand
                  {
                    OFFSET 0 14.1575 0
                    CHANNELS 3 Zrotation Xrotation Yrotation
                    End Site
                    {
                      OFFSET 0 0 0
                    }
                  }
                }
              }
            }
          }
        }
        JOINT LeftShoulder
        {
          OFFSET 3.70221 9.49509 -0.515508
          CHANNELS 3 Zrotation Xrotation Yrotation
          JOINT LeftArm
          {
            OFFSET 0 12.4537 0
            CHANNELS 3 Zrotation Xrotation Yrotation
            JOINT LeftArmRoll
            {
              OFFSET 0 6.28686 0
              CHANNELS 3 Zrotation Xrotation Yrotation
              JOINT LeftForeArm
              {
                OFFSET 0 18.3114 0
                CHANNELS 3 Zrotation Xrotation Yrotation
                JOINT LeftForeArmRoll
                {
                  OFFSET 0 7.05483 0
                  CHANNELS 3 Zrotation Xrotation Yrotation
                  JOINT LeftHand
                  {
                    OFFSET 0 14.1575 0
                    CHANNELS 3 Zrotation Xrotation Yrotation
                    End Site
                    {
                      OFFSET 0 0 0
                    }
                  }
                }
              }
            }
          }
        }
      }
    }
  }
  JOINT RightUpLeg
  {
    OFFSET -5.66615 -1.03903 -0.87161
    CHANNELS 3 Zrotation Xrotation Yrotation
    JOINT RightUpLegRoll
    {
      OFFSET 0 16.6005 0
      CHANNELS 3 Zrotation Xrotation Yrotation
      JOINT RightLeg
      {
        OFFSET 0 -20.5572 0
        CHANNELS 3 Zrotation Xrotation Yrotation
        JOINT RightLegRoll
        {
          OFFSET 0 20.6244 0
          CHANNELS 3 Zrotation Xrotation Yrotation
          JOINT RightFoot
          {
            OFFSET 0 17.1664 0
            CHANNELS 3 Zrotation Xrotation Yrotation
            JOINT RightToeBase
            {
              OFFSET 0 14.3502 0
              CHANNELS 3 Zrotation Xrotation Yrotation
              End Site
              {
                OFFSET 0.00608252 6.94971 -0.801061
              }
            }
          }
        }
      }
    }
  }
  JOINT LeftUpLeg
  {
    OFFSET 5.66615 -1.03903 -0.87161
    CHANNELS 3 Zrotation Xrotation Yrotation
    JOINT LeftUpLegRoll
    {
      OFFSET 0 16.6006 0
      CHANNELS 3 Zrotation Xrotation Yrotation
      JOINT LeftLeg
      {
        OFFSET 0 20.5571 0
        CHANNELS 3 Zrotation Xrotation Yrotation
        JOINT LeftLegRoll
        {
          OFFSET 0 20.8151 0
          CHANNELS 3 Zrotation Xrotation Yrotation
          JOINT LeftFoot
          {
            OFFSET 0 16.9757 0
            CHANNELS 3 Zrotation Xrotation Yrotation
            JOINT LeftToeBase
            {
              OFFSET 0 14.3502 0
              CHANNELS 3 Zrotation Xrotation Yrotation
              End Site
              {
                OFFSET -0.0272592 6.9497 -0.801061
              }
            }
          }
        }
      }
    }
  }
}
MOTION
Frames: 8
Frame Time: 0.00208333
52.6943 77.2466 37.2485 0.0851778 15.65 5.65117 -0.74302 -0.476786 -0.292766 -1.47892 3.05201 -0.497281 -1.47477 4.69676 -0.472908 4.85479 -4.41064 -1.57766 -0.729231 -1.20149 -0.819006 59.0826 1.88372 1.15439 115.08 28.9411 -18.8195 7.22457e-007 1.80845e-007 -5.14137e-006 19.4245 23.4933 -3.93572 1.35031e-005 3.98203e-006 -2.99999 8.02886 -4.95138 0.697589 -50.3147 0.65075 -1.61714 -117.956 24.4679 14.9426 -3.98914e-006 -1.18748e-007 4.78623e-006 -13.982 22.1989 3.61685 1.55717e-006 1.95202e-005 2.99998 -8.02888 -4.95084 -0.697417 172.468 50.3479 5.93535 180 -1.52572e-005 179.181 174.806 50.3632 -179.117 -3.15761e-006 -4.01226e-006 0.96514 -34.7159 77.8186 35.2009 8.12811 25.2402 -3.47478 -177.142 51.1001 1.49583 4.5067e-006 -1.99009e-005 -0.904005 1.0713 -51.9696 1.58923 -4.13338e-007 -2.09623e-006 -1.59464 32.0087 77.6125 -33.8623 -8.16607 25.8072 2.73475 
52.6905 77.3204 37.3476 0.0937175 15.528 5.66991 -0.741863 -0.488053 -0.290207 -1.47623 3.02944 -0.491828 -1.47213 4.67418 -0.467494 4.83555 -4.2897 -1.59409 -0.729487 -1.2111 -0.833724 59.1014 1.84965 1.13082 115.033 28.9041 -18.676 7.22457e-007 1.80845e-007 -5.14137e-006 19.4107 23.2883 -3.89688 1.35031e-005 3.98203e-006 -2.99999 8.02886 -4.95138 0.697589 -50.3682 0.640238 -1.60158 -117.877 24.3996 14.8185 -3.98914e-006 -1.18748e-007 4.78623e-006 -13.9715 22.0622 3.59286 1.55717e-006 1.95202e-005 2.99998 -8.02888 -4.95084 -0.697417 172.515 50.0329 5.87994 180 -1.52572e-005 179.179 174.807 50.1777 -179.121 -3.15761e-006 -4.01226e-006 0.962135 -34.7423 77.8255 35.2238 8.12811 25.2402 -3.47478 -177.181 50.7904 1.54701 4.5067e-006 -1.99009e-005 -0.905313 1.08475 -51.7807 1.59096 -4.13338e-007 -2.09623e-006 -1.59015 32.0008 77.6105 -33.856 -8.16615 25.8083 2.73345 
52.687 77.3986 37.4477 0.102763 15.408 5.68918 -0.74083 -0.499704 -0.287636 -1.47393 3.00609 -0.486376 -1.46989 4.65084 -0.462074 4.81607 -4.168 -1.61109 -0.728487 -1.22037 -0.848934 59.1231 1.81473 1.10633 114.981 28.8651 -18.5346 7.22457e-007 1.80845e-007 -5.14137e-006 19.3991 23.0905 -3.85981 1.35031e-005 3.98203e-006 -2.99999 8.02886 -4.95138 0.697589 -50.4224 0.630965 -1.58685 -117.795 24.3292 14.6942 -3.98914e-006 -1.18748e-007 4.78623e-006 -13.9622 21.9307 3.5699 1.55717e-006 1.95202e-005 2.99998 -8.02888 -4.95084 -0.697417 172.557 49.7199 5.82863 180 -1.52572e-005 179.178 174.807 49.9914 -179.125 -3.15761e-006 -4.01226e-006 0.959103 -34.7664 77.8315 35.2444 8.12811 25.2402 -3.47478 -177.221 50.4838 1.59913 4.5067e-006 -1.99009e-005 -0.906639 1.0985 -51.5916 1.59276 -4.13338e-007 -2.09623e-006 -1.58567 31.9888 77.6069 -33.8454 -8.16624 25.8096 2.7319 
52.694 77.4678 37.5422 0.112337 15.2903 5.70904 -0.739929 -0.511795 -0.285037 -1.47207 2.98187 -0.480903 -1.46808 4.62662 -0.456626 4.79625 -4.04567 -1.62885 -0.72594 -1.22903 -0.864833 59.1481 1.77877 1.08074 114.925 28.8242 -18.3954 7.22457e-007 1.80845e-007 -5.14137e-006 19.3902 22.9001 -3.82456 1.35031e-005 3.98203e-006 -2.99999 8.02886 -4.95138 0.697589 -50.4774 0.623246 -1.57317 -117.712 24.2564 14.5694 -3.98914e-006 -1.18748e-007 4.78623e-006 -13.954 21.8042 3.54793 1.55717e-006 1.95202e-005 2.99998 -8.02888 -4.95084 -0.697417 172.595 49.409 5.78174 180 -1.52572e-005 179.177 174.806 49.8043 -179.129 -3.15761e-006 -4.01226e-006 0.956047 -34.7885 77.8367 35.2625 8.12811 25.2402 -3.47478 -177.261 50.1808 1.65232 4.5067e-006 -1.99009e-005 -0.907985 1.11264 -51.4025 1.59466 -4.13338e-007 -2.09623e-006 -1.58121 31.9726 77.6017 -33.8303 -8.16634 25.811 2.73005 
52.6902 77.5469 37.6434 0.122714 15.1749 5.72948 -0.739198 -0.524396 -0.282445 -1.47072 2.95663 -0.475443 -1.46679 4.60139 -0.451181 4.77629 -3.92137 -1.64725 -0.722332 -1.23825 -0.881272 59.1765 1.74223 1.05433 114.863 28.7808 -18.2585 7.22457e-007 1.80845e-007 -5.14137e-006 19.3835 22.7183 -3.7912 1.35031e-005 3.98203e-006 -2.99999 8.02886 -4.95138 0.697589 -50.5336 0.617593 -1.56081 -117.625 24.1804 14.4447 -3.98914e-006 -1.18748e-007 4.78623e-006 -13.9478 21.6855 3.52755 1.55717e-006 1.95202e-005 2.99998 -8.02888 -4.95084 -0.697417 172.628 49.1003 5.73975 180 -1.52572e-005 179.176 174.804 49.6164 -179.132 -3.15761e-006 -4.01226e-006 0.952964 -34.8085 77.8409 35.2781 8.12811 25.2402 -3.47478 -177.304 49.8814 1.7074 4.5067e-006 -1.99009e-005 -0.909383 1.12733 -51.2134 1.59675 -4.13338e-007 -2.09623e-006 -1.57678 31.9521 77.5947 -33.8107 -8.16645 25.8127 2.72789 
52.6951 77.6168 37.7294 0.13407 15.0615 5.75039 -0.738654 -0.537491 -0.279898 -1.46992 2.93041 -0.470042 -1.46603 4.57516 -0.445788 4.75643 -3.79404 -1.66599 -0.718359 -1.2492 -0.897916 59.2077 1.70566 1.02748 114.796 28.7341 -18.1233 7.22457e-007 1.80845e-007 -5.14137e-006 19.3782 22.5458 -3.75964 1.35031e-005 3.98203e-006 -2.99999 8.02886 -4.95138 0.697589 -50.5913 0.614025 -1.54972 -117.535 24.1009 14.3206 -3.98914e-006 -1.18748e-007 4.78623e-006 -13.944 21.5764 3.50923 1.55717e-006 1.95202e-005 2.99998 -8.02888 -4.95084 -0.697417 172.656 48.7935 5.70253 180 -1.52572e-005 179.175 174.801 49.4277 -179.135 -3.15761e-006 -4.01226e-006 0.949846 -34.8262 77.8441 35.2909 8.12811 25.2402 -3.47478 -177.35 49.5851 1.76482 4.5067e-006 -1.99009e-005 -0.91085 1.14263 -51.0242 1.59905 -4.13338e-007 -2.09623e-006 -1.57234 31.928 77.5863 -33.7872 -8.16658 25.8145 2.72552 
52.7017 77.6829 37.8338 0.146282 14.95 5.7717 -0.738276 -0.551013 -0.277393 -1.46959 2.90333 -0.464704 -1.46575 4.54808 -0.440448 4.73668 -3.66411 -1.68495 -0.71404 -1.26163 -0.914679 59.2414 1.66902 1.00024 114.725 28.6845 -17.9897 7.22457e-007 1.80845e-007 -5.14137e-006 19.3742 22.3823 -3.72977 1.35031e-005 3.98203e-006 -2.99999 8.02886 -4.95138 0.697589 -50.6502 0.612106 -1.53963 -117.441 24.0181 14.1974 -3.98914e-006 -1.18748e-007 4.78623e-006 -13.9424 21.4758 3.49276 1.55717e-006 1.95202e-005 2.99998 -8.02888 -4.95084 -0.697417 172.68 48.4885 5.66945 180 -1.52572e-005 179.174 174.796 49.2381 -179.138 -3.15761e-006 -4.01226e-006 0.946691 -34.8415 77.8462 35.3008 8.12811 25.2402 -3.47478 -177.397 49.2916 1.8241 4.5067e-006 -1.99009e-005 -0.91237 1.15839 -50.8346 1.60151 -4.13338e-007 -2.09623e-006 -1.56788 31.9004 77.5764 -33.7601 -8.16671 25.8164 2.72296 
52.7101 77.7561 37.9173 0.159224 14.8401 5.79336 -0.738041 -0.564891 -0.274929 -1.46967 2.87554 -0.45943 -1.46588 4.5203 -0.435167 4.71706 -3.53204 -1.70404 -0.709395 -1.27528 -0.931474 59.2773 1.63227 0.97263 114.65 28.6321 -17.8577 7.22457e-007 1.80845e-007 -5.14137e-006 19.3712 22.2271 -3.70148 1.35031e-005 3.98203e-006 -2.99999 8.02886 -4.95138 0.697589 -50.7101 0.611402 -1.53028 -117.344 23.9326 14.0749 -3.98914e-006 -1.18748e-007 4.78623e-006 -13.9426 21.3829 3.47789 1.55717e-006 1.95202e-005 2.99998 -8.02888 -4.95084 -0.697417 172.7 48.1851 5.63992 180 -1.52572e-005 179.173 174.79 49.0475 -179.14 -3.15761e-006 -4.01226e-006 0.943497 -34.8543 77.8474 35.3078 8.12811 25.2402 -3.47478 -177.446 49.0005 1.88479 4.5067e-006 -1.99009e-005 -0.913928 1.1745 -50.6447 1.60407 -4.13338e-007 -2.09623e-006 -1.56338 31.8695 77.5653 -33.7295 -8.16685 25.8183 2.72026 
